<svg xmlns="http://www.w3.org/2000/svg" xmlns:xlink="http://www.w3.org/1999/xlink" width="100" zoomAndPan="magnify" viewBox="0 0 75 74.999997" height="100" preserveAspectRatio="xMidYMid meet" version="1.0"><defs><clipPath id="2981ac1428"><path d="M 3.496094 16.910156 L 40.996094 16.910156 L 40.996094 60.410156 L 3.496094 60.410156 Z M 3.496094 16.910156 " clip-rule="nonzero"/></clipPath><clipPath id="ffd0530ac0"><path d="M 10 17 L 40.996094 17 L 40.996094 60.410156 L 10 60.410156 Z M 10 17 " clip-rule="nonzero"/></clipPath><clipPath id="5d6ca540db"><path d="M 3.496094 16.910156 L 38 16.910156 L 38 58 L 3.496094 58 Z M 3.496094 16.910156 " clip-rule="nonzero"/></clipPath><clipPath id="45534f68b1"><path d="M 39.878906 16.910156 L 71.378906 16.910156 L 71.378906 60.410156 L 39.878906 60.410156 Z M 39.878906 16.910156 " clip-rule="nonzero"/></clipPath><clipPath id="e3a9bde7d0"><path d="M 40 17 L 71.378906 17 L 71.378906 60.410156 L 40 60.410156 Z M 40 17 " clip-rule="nonzero"/></clipPath><clipPath id="6acc06c4bd"><path d="M 39.878906 16.910156 L 68 16.910156 L 68 58 L 39.878906 58 Z M 39.878906 16.910156 " clip-rule="nonzero"/></clipPath></defs><g clip-path="url(#2981ac1428)"><path fill="#f8049c" d="M 40.984375 21.742188 L 40.984375 43.238281 C 40.984375 52.714844 33.277344 60.40625 23.863281 60.261719 C 19.714844 60.199219 15.953125 58.589844 13.0625 56 L 13.0625 56.003906 L 10.402344 53.6875 C 9.769531 53.207031 9.171875 52.6875 8.613281 52.128906 C 8.597656 52.113281 8.582031 52.097656 8.570312 52.082031 C 5.441406 48.929688 3.503906 44.546875 3.503906 39.757812 L 3.503906 37.660156 C 3.503906 36.773438 4.21875 36.050781 5.097656 36.050781 L 15.359375 36.050781 C 15.773438 36.050781 16.148438 36.214844 16.433594 36.476562 L 20.101562 39.613281 C 20.472656 39.910156 20.714844 40.367188 20.714844 40.882812 L 20.714844 43.136719 C 20.714844 43.238281 20.722656 43.339844 20.730469 43.4375 C 22.4375 43.25 23.773438 41.789062 23.773438 40.015625 L 23.773438 18.519531 C 23.773438 17.632812 24.488281 16.910156 25.367188 16.910156 L 35.625 16.910156 C 35.957031 16.910156 36.265625 17.015625 36.519531 17.1875 C 36.519531 17.1875 36.519531 17.191406 36.523438 17.191406 C 36.613281 17.25 36.695312 17.324219 36.769531 17.402344 L 40.34375 20.453125 C 40.398438 20.496094 40.449219 20.539062 40.5 20.585938 L 40.503906 20.589844 C 40.800781 20.882812 40.984375 21.289062 40.984375 21.742188 Z M 40.984375 21.742188 " fill-opacity="1" fill-rule="nonzero"/></g><g clip-path="url(#ffd0530ac0)"><path fill="#171539" d="M 40.984375 21.742188 L 40.984375 43.238281 C 40.984375 52.714844 33.277344 60.40625 23.863281 60.261719 C 19.714844 60.199219 15.953125 58.589844 13.0625 56 L 13.0625 56.003906 L 10.402344 53.6875 C 13.121094 55.738281 16.460938 56.984375 20.101562 57.039062 C 29.515625 57.183594 37.21875 49.492188 37.21875 40.015625 L 37.21875 18.519531 C 37.21875 18.085938 37.046875 17.691406 36.769531 17.402344 L 40.34375 20.453125 C 40.398438 20.496094 40.449219 20.539062 40.5 20.585938 L 40.503906 20.589844 C 40.800781 20.882812 40.984375 21.289062 40.984375 21.742188 Z M 16.949219 37.660156 L 16.949219 39.917969 C 16.949219 41.769531 18.359375 43.367188 20.191406 43.457031 C 20.375 43.46875 20.554688 43.457031 20.730469 43.4375 C 20.722656 43.339844 20.714844 43.238281 20.714844 43.136719 L 20.714844 40.882812 C 20.714844 40.367188 20.472656 39.910156 20.101562 39.613281 L 16.433594 36.476562 C 16.75 36.769531 16.949219 37.191406 16.949219 37.660156 Z M 16.949219 37.660156 " fill-opacity="1" fill-rule="nonzero"/></g><g clip-path="url(#5d6ca540db)"><path fill="#f8049c" d="M 20.101562 57.039062 C 29.515625 57.183594 37.21875 49.492188 37.21875 40.015625 L 37.21875 18.519531 C 37.21875 18.085938 37.046875 17.691406 36.769531 17.402344 C 36.695312 17.324219 36.613281 17.25 36.523438 17.191406 C 36.519531 17.191406 36.519531 17.1875 36.519531 17.1875 C 36.265625 17.015625 35.957031 16.910156 35.625 16.910156 L 25.367188 16.910156 C 24.488281 16.910156 23.773438 17.632812 23.773438 18.519531 L 23.773438 40.015625 C 23.773438 41.789062 22.4375 43.25 20.730469 43.4375 C 20.550781 43.457031 20.375 43.464844 20.191406 43.457031 C 18.359375 43.367188 16.949219 41.769531 16.949219 39.917969 L 16.949219 37.660156 C 16.949219 37.191406 16.75 36.769531 16.433594 36.476562 C 16.148438 36.214844 15.773438 36.050781 15.359375 36.050781 L 5.097656 36.050781 C 4.21875 36.050781 3.503906 36.773438 3.503906 37.660156 L 3.503906 39.757812 C 3.503906 44.546875 5.441406 48.929688 8.570312 52.082031 C 8.582031 52.097656 8.597656 52.113281 8.613281 52.128906 C 9.171875 52.6875 9.769531 53.207031 10.402344 53.6875 C 13.121094 55.738281 16.460938 56.984375 20.101562 57.039062 Z M 35.710938 41.195312 C 35.480469 43.898438 34.613281 46.507812 33.089844 48.757812 C 32.710938 49.3125 32.0625 49.511719 31.453125 49.1875 C 30.910156 48.898438 30.671875 48.058594 31.027344 47.539062 C 31.359375 47.046875 31.664062 46.542969 31.933594 46.015625 C 32.070312 45.75 32.195312 45.480469 32.320312 45.210938 C 32.339844 45.15625 32.351562 45.128906 32.359375 45.117188 C 32.378906 45.070312 32.394531 45.027344 32.414062 44.980469 C 32.46875 44.839844 32.523438 44.699219 32.574219 44.558594 C 32.777344 43.988281 32.945312 43.40625 33.074219 42.816406 C 33.140625 42.515625 33.195312 42.214844 33.242188 41.910156 C 33.25 41.863281 33.257812 41.816406 33.265625 41.765625 C 33.265625 41.757812 33.269531 41.722656 33.277344 41.65625 C 33.292969 41.503906 33.308594 41.347656 33.324219 41.195312 C 33.378906 40.519531 33.824219 40.019531 34.515625 39.988281 C 35.125 39.960938 35.765625 40.5625 35.710938 41.195312 Z M 34.5625 39.234375 C 33.894531 39.234375 33.398438 38.683594 33.371094 38.027344 C 33.339844 37.375 33.941406 36.820312 34.5625 36.820312 C 35.234375 36.820312 35.730469 37.375 35.757812 38.027344 C 35.789062 38.679688 35.1875 39.234375 34.5625 39.234375 Z M 34.5625 39.234375 " fill-opacity="1" fill-rule="nonzero"/></g><path fill="#ecedea" d="M 35.710938 41.195312 C 35.480469 43.898438 34.613281 46.507812 33.089844 48.757812 C 32.710938 49.3125 32.0625 49.511719 31.453125 49.1875 C 30.910156 48.898438 30.671875 48.058594 31.027344 47.539062 C 31.359375 47.046875 31.664062 46.542969 31.933594 46.015625 C 32.070312 45.75 32.195312 45.480469 32.320312 45.210938 C 32.339844 45.15625 32.351562 45.128906 32.359375 45.117188 C 32.378906 45.070312 32.394531 45.027344 32.414062 44.980469 C 32.46875 44.839844 32.523438 44.699219 32.574219 44.558594 C 32.777344 43.988281 32.945312 43.40625 33.074219 42.816406 C 33.140625 42.515625 33.195312 42.214844 33.242188 41.910156 C 33.25 41.863281 33.257812 41.816406 33.265625 41.765625 C 33.265625 41.757812 33.269531 41.722656 33.277344 41.65625 C 33.292969 41.503906 33.308594 41.347656 33.324219 41.195312 C 33.378906 40.519531 33.824219 40.019531 34.515625 39.988281 C 35.125 39.960938 35.765625 40.5625 35.710938 41.195312 Z M 34.5625 36.820312 C 33.941406 36.820312 33.339844 37.375 33.371094 38.027344 C 33.398438 38.683594 33.894531 39.234375 34.5625 39.234375 C 35.1875 39.234375 35.789062 38.679688 35.757812 38.027344 C 35.730469 37.375 35.234375 36.820312 34.5625 36.820312 Z M 34.5625 36.820312 " fill-opacity="1" fill-rule="nonzero"/><g clip-path="url(#45534f68b1)"><path fill="#0cc0df" d="M 71.367188 46.914062 L 71.367188 58.777344 C 71.367188 59.679688 70.644531 60.410156 69.75 60.410156 L 45.332031 60.410156 C 44.949219 60.410156 44.601562 60.277344 44.324219 60.054688 L 44.3125 60.042969 C 44.304688 60.039062 44.296875 60.03125 44.289062 60.023438 L 40.46875 56.75 C 40.117188 56.449219 39.894531 56.003906 39.894531 55.5 L 39.894531 18.546875 C 39.894531 17.644531 40.617188 16.910156 41.511719 16.910156 L 54.785156 16.910156 C 55.214844 16.910156 55.605469 17.082031 55.894531 17.359375 L 55.894531 17.355469 L 59.554688 20.5 C 59.625 20.550781 59.691406 20.605469 59.753906 20.667969 L 59.753906 20.671875 C 60.042969 20.964844 60.222656 21.371094 60.222656 21.820312 L 60.222656 42.003906 L 65.929688 42.003906 C 66.371094 42.003906 66.773438 42.1875 67.066406 42.476562 L 70.773438 45.648438 C 70.777344 45.652344 70.78125 45.65625 70.785156 45.660156 L 70.800781 45.671875 C 71.144531 45.972656 71.367188 46.417969 71.367188 46.914062 Z M 71.367188 46.914062 " fill-opacity="1" fill-rule="nonzero"/></g><g clip-path="url(#e3a9bde7d0)"><path fill="#171539" d="M 71.367188 46.914062 L 71.367188 58.777344 C 71.367188 59.679688 70.644531 60.410156 69.75 60.410156 L 45.332031 60.410156 C 44.949219 60.410156 44.601562 60.277344 44.324219 60.054688 L 44.3125 60.042969 C 44.304688 60.039062 44.296875 60.03125 44.289062 60.023438 L 40.46875 56.75 C 40.75 56.992188 41.113281 57.136719 41.511719 57.136719 L 65.929688 57.136719 C 66.820312 57.136719 67.546875 56.40625 67.546875 55.5 L 67.546875 43.640625 C 67.546875 43.1875 67.363281 42.773438 67.066406 42.476562 L 70.773438 45.648438 C 70.777344 45.652344 70.78125 45.65625 70.785156 45.660156 L 70.800781 45.671875 C 71.144531 45.972656 71.367188 46.417969 71.367188 46.914062 Z M 56.402344 18.546875 L 56.402344 42.003906 L 60.222656 42.003906 L 60.222656 21.820312 C 60.222656 21.371094 60.042969 20.964844 59.753906 20.671875 L 59.753906 20.667969 C 59.691406 20.605469 59.625 20.550781 59.554688 20.5 L 55.898438 17.355469 L 55.894531 17.359375 C 56.207031 17.65625 56.402344 18.078125 56.402344 18.546875 Z M 56.402344 18.546875 " fill-opacity="1" fill-rule="nonzero"/></g><g clip-path="url(#6acc06c4bd)"><path fill="#0cc0df" d="M 65.929688 57.136719 C 66.820312 57.136719 67.546875 56.40625 67.546875 55.5 L 67.546875 43.640625 C 67.546875 43.1875 67.363281 42.773438 67.066406 42.476562 C 66.773438 42.1875 66.371094 42.003906 65.929688 42.003906 L 56.402344 42.003906 L 56.402344 18.546875 C 56.402344 18.078125 56.207031 17.65625 55.894531 17.359375 C 55.605469 17.082031 55.214844 16.910156 54.785156 16.910156 L 41.511719 16.910156 C 40.617188 16.910156 39.894531 17.644531 39.894531 18.546875 L 39.894531 55.5 C 39.894531 56.003906 40.117188 56.449219 40.46875 56.75 C 40.75 56.992188 41.113281 57.136719 41.511719 57.136719 Z M 64.691406 55.636719 C 64.011719 55.636719 63.511719 55.074219 63.480469 54.410156 C 63.453125 53.75 64.058594 53.183594 64.691406 53.183594 C 65.371094 53.183594 65.875 53.746094 65.90625 54.410156 C 65.933594 55.074219 65.328125 55.636719 64.691406 55.636719 Z M 61.5 53.183594 C 62.179688 53.183594 62.683594 53.746094 62.710938 54.410156 C 62.742188 55.074219 62.132812 55.636719 61.5 55.636719 L 54.277344 55.636719 C 53.597656 55.636719 53.09375 55.074219 53.066406 54.410156 C 53.035156 53.75 53.644531 53.183594 54.277344 53.183594 Z M 61.5 53.183594 " fill-opacity="1" fill-rule="nonzero"/></g><path fill="#ecedea" d="M 61.5 53.183594 C 62.179688 53.183594 62.683594 53.746094 62.710938 54.410156 C 62.742188 55.074219 62.132812 55.636719 61.5 55.636719 L 54.277344 55.636719 C 53.597656 55.636719 53.09375 55.074219 53.066406 54.410156 C 53.035156 53.75 53.644531 53.183594 54.277344 53.183594 Z M 64.691406 53.183594 C 64.058594 53.183594 63.453125 53.75 63.480469 54.410156 C 63.511719 55.074219 64.011719 55.636719 64.691406 55.636719 C 65.328125 55.636719 65.933594 55.074219 65.90625 54.410156 C 65.875 53.746094 65.371094 53.183594 64.691406 53.183594 Z M 64.691406 53.183594 " fill-opacity="1" fill-rule="nonzero"/></svg>