<svg xmlns="http://www.w3.org/2000/svg" xmlns:xlink="http://www.w3.org/1999/xlink" width="400" zoomAndPan="magnify" viewBox="0 0 300 149.999998" height="200" preserveAspectRatio="xMidYMid meet" version="1.0"><defs><g/></defs><g fill="#f8049c" fill-opacity="1"><g transform="translate(15.000002, 99.903498)"><g><path d="M 30.996094 -45.515625 L 16.117188 -45.515625 C 14.589844 -45.515625 14.664062 -44.425781 15.390625 -43.773438 C 17.496094 -41.886719 18.800781 -31.433594 18.875 -22.867188 C 18.875 -17.347656 18.292969 -12.992188 15.824219 -11.398438 C 13.140625 -9.726562 9.074219 -14.011719 11.25 -18.65625 C 13.9375 -24.171875 0 -27.511719 0 -18.65625 C 0 -12.847656 5.734375 -8.566406 13.863281 -8.566406 C 23.808594 -8.566406 29.253906 -14.808594 29.253906 -24.828125 C 29.253906 -29.90625 29.035156 -41.667969 31.796875 -43.773438 C 32.519531 -44.355469 32.519531 -45.515625 30.996094 -45.515625 Z M 30.996094 -45.515625 "/></g></g></g><g fill="#f8049c" fill-opacity="1"><g transform="translate(43.888707, 99.903498)"><g><path d="M 25.84375 -16.914062 C 23.808594 -14.226562 19.382812 -13.285156 16.695312 -14.011719 C 13.792969 -14.882812 12.195312 -16.914062 11.46875 -19.308594 C 12.992188 -18.65625 14.664062 -18.222656 16.550781 -18.222656 C 22.214844 -18.222656 26.859375 -22.066406 26.859375 -26.785156 C 26.859375 -31.578125 20.761719 -35.425781 15.097656 -35.425781 C 6.386719 -35.425781 0 -29.398438 0 -21.996094 C 0 -14.589844 6.460938 -8.566406 14.519531 -8.566406 C 20.109375 -8.566406 24.972656 -11.542969 27.367188 -15.824219 C 27.804688 -16.625 26.570312 -17.859375 25.84375 -16.914062 Z M 14.734375 -33.390625 C 16.695312 -33.390625 18.074219 -30.417969 18.074219 -26.785156 C 18.074219 -23.230469 16.695312 -20.253906 14.734375 -20.253906 C 12.992188 -20.253906 11.179688 -22.648438 11.179688 -26.496094 C 11.179688 -31.140625 13.574219 -33.390625 14.734375 -33.390625 Z M 14.734375 -33.390625 "/></g></g></g><g fill="#f8049c" fill-opacity="1"><g transform="translate(68.567429, 99.903498)"><g><path d="M 35.28125 -10.089844 C 32.738281 -11.976562 32.304688 -13.574219 32.304688 -16.261719 L 32.304688 -21.050781 C 32.304688 -29.035156 27.292969 -35.425781 19.453125 -35.425781 C 17.132812 -35.425781 15.246094 -33.902344 13.792969 -32.011719 L 14.011719 -33.539062 C 14.15625 -34.480469 14.882812 -35.644531 13.355469 -35.351562 C 10.597656 -34.773438 7.695312 -30.054688 0.726562 -30.054688 C 0 -30.054688 -0.289062 -29.183594 0.4375 -28.601562 C 2.976562 -26.640625 3.410156 -25.042969 3.410156 -22.359375 L 3.410156 -16.261719 C 3.410156 -13.574219 2.976562 -11.976562 0.4375 -10.089844 C -0.289062 -9.507812 0 -8.566406 0.726562 -8.566406 L 14.882812 -8.566406 C 16.40625 -8.566406 16.40625 -9.800781 15.605469 -10.378906 C 13.429688 -12.050781 12.414062 -17.929688 13.210938 -27.148438 C 14.445312 -29.90625 15.898438 -32.085938 17.347656 -32.085938 C 22.359375 -32.085938 24.464844 -14.589844 19.816406 -10.378906 C 19.09375 -9.726562 19.019531 -8.566406 20.542969 -8.566406 L 34.988281 -8.566406 C 35.714844 -8.566406 36.007812 -9.507812 35.28125 -10.089844 Z M 35.28125 -10.089844 "/></g></g></g><g fill="#f8049c" fill-opacity="1"><g transform="translate(101.666115, 99.903498)"><g/></g></g><g fill="#0cc0df" fill-opacity="1"><g transform="translate(109.570309, 99.903498)"><g><path d="M 29.472656 -18.730469 C 27.585938 -16.1875 23.15625 -10.597656 18.65625 -10.597656 L 16.261719 -10.597656 C 13.863281 -13.140625 13.574219 -22.214844 13.574219 -27.078125 C 13.574219 -32.160156 13.863281 -41.667969 16.550781 -43.773438 C 17.347656 -44.355469 17.347656 -45.515625 15.824219 -45.515625 L 0.726562 -45.515625 C 0 -45.515625 -0.289062 -44.644531 0.4375 -44.0625 C 2.976562 -42.175781 3.410156 -40.507812 3.410156 -37.894531 L 3.410156 -16.261719 C 3.410156 -13.574219 2.976562 -11.976562 0.4375 -10.089844 C -0.289062 -9.507812 0 -8.566406 0.726562 -8.566406 L 27.730469 -8.566406 C 29.109375 -8.566406 29.546875 -9.148438 29.691406 -10.597656 C 29.90625 -12.558594 30.996094 -17.929688 30.996094 -18.4375 C 30.996094 -19.238281 30.054688 -19.453125 29.472656 -18.730469 Z M 29.472656 -18.730469 "/></g></g></g><g fill="#0cc0df" fill-opacity="1"><g transform="translate(137.660571, 99.903498)"><g><path d="M 32.449219 -33.539062 C 32.59375 -34.480469 33.246094 -35.644531 31.722656 -35.351562 C 29.035156 -34.773438 26.0625 -30.054688 19.09375 -30.054688 C 18.367188 -30.054688 18.074219 -29.183594 18.800781 -28.601562 C 21.34375 -26.640625 21.777344 -25.042969 21.777344 -22.359375 L 21.777344 -16.261719 C 20.835938 -14.082031 19.453125 -11.90625 17.929688 -11.90625 C 12.484375 -11.90625 12.195312 -24.898438 14.011719 -33.539062 C 14.226562 -34.480469 14.882812 -35.644531 13.355469 -35.351562 C 10.597656 -34.773438 7.695312 -30.054688 0.726562 -30.054688 C 0 -30.054688 -0.289062 -29.183594 0.4375 -28.601562 C 2.976562 -26.640625 3.410156 -25.042969 3.410156 -22.359375 C 3.410156 -11.613281 8.421875 -8.566406 14.953125 -8.566406 C 18.222656 -8.566406 20.472656 -10.453125 22.066406 -12.777344 C 22.792969 -10.671875 24.828125 -8.566406 28.019531 -8.566406 L 34.699219 -8.566406 C 35.425781 -8.566406 35.570312 -9.363281 34.917969 -10.089844 C 30.417969 -15.460938 31.503906 -27.730469 32.449219 -33.539062 Z M 32.449219 -33.539062 "/></g></g></g><g fill="#0cc0df" fill-opacity="1"><g transform="translate(169.743059, 99.903498)"><g><path d="M 15.96875 -33.390625 C 18.4375 -33.390625 18.148438 -29.328125 18.582031 -24.027344 C 19.09375 -18.730469 30.054688 -23.375 27.222656 -28.382812 C 24.464844 -33.320312 20.035156 -35.425781 14.519531 -35.425781 C 6.460938 -35.425781 0 -29.398438 0 -21.996094 C 0 -14.589844 6.460938 -8.566406 14.519531 -8.566406 C 20.109375 -8.566406 24.972656 -11.542969 27.367188 -15.824219 C 27.804688 -16.625 26.570312 -17.859375 25.84375 -16.914062 C 23.808594 -14.226562 19.382812 -13.285156 16.695312 -14.011719 C 6.824219 -16.839844 11.976562 -33.390625 15.96875 -33.390625 Z M 15.96875 -33.390625 "/></g></g></g><g fill="#0cc0df" fill-opacity="1"><g transform="translate(194.494368, 99.903498)"><g><path d="M 35.496094 -10.089844 C 33.03125 -11.976562 32.519531 -13.574219 32.519531 -16.261719 L 32.519531 -21.050781 C 32.519531 -29.035156 27.585938 -35.425781 19.671875 -35.425781 C 16.839844 -35.425781 14.664062 -33.828125 13.066406 -31.796875 C 13.210938 -35.789062 13.574219 -39.851562 14.300781 -43.699219 C 14.445312 -44.644531 15.097656 -45.878906 13.574219 -45.515625 C 10.890625 -45.007812 7.695312 -40.214844 0.726562 -40.214844 C 0 -40.214844 -0.289062 -39.34375 0.4375 -38.765625 C 2.976562 -36.878906 3.410156 -35.28125 3.410156 -32.59375 L 3.410156 -16.261719 C 3.410156 -13.574219 2.976562 -11.976562 0.4375 -10.089844 C -0.289062 -9.507812 0 -8.566406 0.726562 -8.566406 L 15.097656 -8.566406 C 16.695312 -8.566406 16.625 -9.800781 15.898438 -10.378906 C 14.15625 -11.6875 12.992188 -19.164062 12.992188 -27.949219 C 14.375 -30.777344 16.261719 -32.375 17.566406 -32.375 C 22.578125 -32.375 24.753906 -14.589844 20.035156 -10.378906 C 19.382812 -9.726562 19.308594 -8.566406 20.835938 -8.566406 L 35.28125 -8.566406 C 36.007812 -8.566406 36.296875 -9.507812 35.496094 -10.089844 Z M 35.496094 -10.089844 "/></g></g></g><g fill="#0cc0df" fill-opacity="1"><g transform="translate(227.883408, 99.903498)"><g><path d="M 34.480469 -10.378906 C 26.785156 -15.246094 25.335938 -27.078125 18.800781 -28.820312 C 20.253906 -29.617188 21.707031 -30.054688 23.375 -28.964844 C 28.675781 -25.625 33.828125 -31.433594 28.890625 -34.480469 C 22.867188 -38.257812 16.695312 -29.109375 12.992188 -28.09375 C 12.992188 -33.175781 13.355469 -38.691406 14.300781 -43.699219 C 14.445312 -44.644531 15.097656 -45.878906 13.574219 -45.515625 C 10.890625 -45.007812 7.695312 -40.214844 0.726562 -40.214844 C 0 -40.214844 -0.289062 -39.34375 0.4375 -38.765625 C 2.976562 -36.878906 3.410156 -35.28125 3.410156 -32.59375 L 3.410156 -16.261719 C 3.410156 -13.574219 2.976562 -11.976562 0.4375 -10.089844 C -0.289062 -9.507812 0 -8.566406 0.726562 -8.566406 L 15.097656 -8.566406 C 16.695312 -8.566406 16.625 -9.800781 15.898438 -10.378906 C 14.300781 -11.542969 13.140625 -18.074219 12.992188 -25.988281 C 16.769531 -26.933594 18.222656 -20.179688 19.238281 -16.261719 C 19.890625 -13.574219 20.109375 -11.976562 18.222656 -10.089844 C 17.640625 -9.507812 18.222656 -8.566406 19.019531 -8.566406 L 34.261719 -8.566406 C 35.789062 -8.566406 35.425781 -9.800781 34.480469 -10.378906 Z M 34.480469 -10.378906 "/></g></g></g><g fill="#0cc0df" fill-opacity="1"><g transform="translate(260.328826, 99.903498)"><g><path d="M 29.109375 -10.089844 C 26.570312 -11.976562 26.132812 -13.574219 26.132812 -16.261719 L 26.132812 -22.214844 C 26.132812 -30.054688 20.253906 -35.425781 12.484375 -35.425781 C 5.808594 -35.425781 2.179688 -32.085938 2.179688 -28.964844 C 2.179688 -24.753906 13.066406 -26.207031 11.542969 -29.761719 C 10.671875 -31.648438 10.671875 -33.390625 11.761719 -33.390625 C 14.375 -33.390625 15.96875 -28.601562 15.96875 -24.390625 L 15.96875 -22.214844 C 14.375 -24.320312 11.761719 -25.699219 8.855469 -25.699219 C 3.992188 -25.699219 0 -21.851562 0 -17.132812 C 0 -12.414062 3.992188 -8.566406 8.855469 -8.566406 C 11.761719 -8.566406 14.375 -9.945312 15.96875 -12.050781 C 15.96875 -12.050781 17.496094 -8.566406 21.414062 -8.566406 L 28.820312 -8.566406 C 29.617188 -8.566406 29.835938 -9.507812 29.109375 -10.089844 Z M 12.050781 -12.484375 C 10.089844 -12.484375 8.492188 -14.589844 8.492188 -17.132812 C 8.492188 -19.671875 10.089844 -21.777344 12.050781 -21.777344 C 14.082031 -21.777344 15.679688 -19.671875 15.679688 -17.132812 C 15.679688 -14.589844 14.082031 -12.484375 12.050781 -12.484375 Z M 12.050781 -12.484375 "/></g></g></g></svg>