<svg xmlns="http://www.w3.org/2000/svg" xmlns:xlink="http://www.w3.org/1999/xlink" width="800" zoomAndPan="magnify" viewBox="0 0 600 299.999988" height="400" preserveAspectRatio="xMidYMid meet" version="1.0"><defs><clipPath id="2dc42ecf64"><path d="M 280.867188 100.097656 L 348.671875 100.097656 L 348.671875 184.117188 L 280.867188 184.117188 Z M 280.867188 100.097656 " clip-rule="nonzero"/></clipPath></defs><path fill="#ffffff" d="M 183.664062 151.027344 C 182.09375 149.742188 179.667969 150.03125 178.382812 151.597656 C 178.097656 152.023438 146.265625 190.808594 117.007812 173.84375 C 113.15625 171.132812 110.15625 167.425781 108.582031 163.148438 C 105.875 157.730469 102.589844 151.171875 93.453125 152.59375 C 88.742188 153.308594 81.464844 159.296875 75.328125 166.140625 C 75.042969 166.570312 74.472656 166.710938 74.046875 166.570312 C 73.613281 166.429688 73.1875 166.140625 73.1875 165.570312 C 72.046875 159.15625 67.761719 153.734375 61.769531 151.171875 C 56.917969 149.886719 49.0625 148.460938 32.648438 164.71875 C 31.796875 165.429688 30.652344 165.144531 30.796875 164.003906 C 30.796875 163.433594 33.652344 151.886719 33.652344 151.886719 C 34.078125 149.886719 32.792969 147.890625 30.796875 147.320312 C 28.796875 146.894531 26.796875 148.175781 26.226562 150.175781 L 19.375 180.257812 C 18.949219 181.96875 19.804688 183.679688 21.375 184.539062 C 23.089844 185.246094 24.945312 184.820312 25.941406 183.398438 C 45.066406 159.441406 54.488281 157.160156 58.339844 157.730469 C 62.199219 158.441406 67.335938 166.140625 66.765625 178.546875 C 66.765625 180.257812 67.761719 181.824219 69.476562 182.257812 C 71.191406 182.828125 72.902344 182.113281 73.757812 180.683594 C 79.609375 170.703125 91.03125 160.582031 94.597656 160.011719 C 98.023438 159.441406 99.023438 160.722656 101.878906 166.429688 C 104.015625 172.132812 108.011719 176.980469 113.15625 180.257812 C 119.144531 183.824219 126 185.816406 132.996094 185.816406 C 160.253906 185.816406 183.09375 157.871094 184.234375 156.304688 C 185.519531 154.738281 185.230469 152.3125 183.664062 151.027344 Z M 183.664062 151.027344 " fill-opacity="1" fill-rule="nonzero"/><path fill="#ffffff" d="M 312.402344 154.59375 C 311.6875 153.878906 310.832031 153.597656 309.832031 153.453125 C 308.832031 153.453125 307.835938 153.878906 307.121094 154.59375 C 285.566406 175.695312 254.167969 182.964844 241.035156 178.832031 C 229.902344 175.269531 224.761719 165.144531 222.480469 154.449219 C 222.050781 152.023438 222.480469 149.742188 223.765625 147.75 C 240.890625 118.664062 259.019531 76.742188 252.738281 66.621094 C 251.308594 64.339844 248.742188 63.199219 246.027344 63.625 C 230.1875 65.617188 216.628906 98.414062 213.914062 127.644531 C 213.34375 133.917969 213.34375 140.050781 213.773438 146.179688 C 213.914062 148.175781 213.484375 150.175781 212.34375 151.886719 C 211.488281 153.308594 210.488281 154.875 209.488281 156.304688 C 196.929688 174.839844 188.363281 180.828125 184.796875 180.402344 C 182.941406 180.257812 181.371094 178.972656 180.945312 177.261719 C 179.515625 169.992188 181.226562 162.578125 185.367188 156.589844 C 188.363281 153.027344 192.792969 149.03125 197.070312 149.886719 C 199.5 150.601562 201.5 152.457031 202.496094 154.738281 C 202.921875 156.730469 204.78125 158.160156 206.78125 157.871094 C 208.773438 157.589844 210.203125 155.734375 209.917969 153.597656 C 208.492188 148.460938 204.636719 144.46875 199.5 142.902344 C 195.074219 141.472656 187.9375 142.042969 179.660156 151.742188 C 175.089844 157.019531 170.523438 170.992188 173.949219 179.972656 C 175.375 184.25 179.230469 187.246094 183.652344 187.816406 C 184.085938 187.816406 184.65625 187.816406 185.082031 187.816406 C 192.648438 187.816406 202.207031 179.6875 213.484375 163.578125 C 213.914062 163.007812 214.769531 162.578125 215.628906 162.71875 C 216.484375 162.71875 217.199219 163.289062 217.480469 164.003906 C 220.625 174.414062 228.613281 182.539062 238.75 185.960938 C 255.59375 191.238281 289.847656 181.824219 312.402344 159.867188 C 313.828125 158.441406 313.828125 156.160156 312.402344 154.59375 Z M 221.480469 128.359375 C 223.765625 102.265625 234.183594 79.308594 243.035156 72.75 C 243.746094 72.320312 244.746094 72.179688 245.601562 72.75 C 246.316406 73.175781 246.742188 74.03125 246.742188 74.890625 C 245.457031 85.726562 237.753906 105.257812 223.476562 130.640625 C 221.195312 134.347656 221.195312 130.925781 221.480469 128.359375 Z M 221.480469 128.359375 " fill-opacity="1" fill-rule="nonzero"/><path fill="#ffffff" d="M 480.675781 151.742188 C 479.246094 150.175781 476.824219 150.03125 475.394531 151.453125 C 474.96875 151.742188 433.859375 188.386719 376.339844 177.976562 C 366.628906 176.265625 361.636719 172.558594 361.636719 167.136719 C 361.492188 157.160156 377.050781 142.613281 387.328125 140.621094 C 390.464844 139.625 393.894531 140.195312 396.75 142.042969 C 398.746094 144.042969 399.886719 146.894531 399.886719 149.886719 C 399.886719 151.886719 401.460938 153.597656 403.457031 153.597656 C 405.601562 153.597656 407.167969 152.023438 407.3125 150.03125 C 407.453125 144.898438 405.3125 139.90625 401.601562 136.339844 C 397.03125 132.917969 391.324219 131.777344 385.898438 133.347656 C 373.484375 135.628906 354.070312 152.167969 354.214844 167.28125 C 354.214844 172.703125 356.925781 182.113281 375.054688 185.390625 C 382.332031 186.675781 389.753906 187.386719 397.320312 187.386719 C 427.578125 187.101562 456.984375 176.410156 480.390625 157.019531 C 481.101562 156.304688 481.535156 155.308594 481.671875 154.449219 C 481.671875 153.453125 481.246094 152.457031 480.675781 151.742188 Z M 480.675781 151.742188 " fill-opacity="1" fill-rule="nonzero"/><path fill="#ffffff" d="M 578.730469 146.75 C 578.015625 146.039062 577.160156 145.753906 576.15625 145.753906 C 575.160156 145.753906 574.164062 146.039062 573.449219 146.75 C 556.316406 163.859375 532.054688 171.703125 508.21875 167.707031 C 506.363281 167.28125 505.078125 165.570312 505.363281 163.71875 C 506.507812 156.875 505.933594 149.886719 501.9375 147.605469 C 499.371094 146.179688 495.511719 146.039062 490.945312 153.734375 C 489.234375 156.304688 488.664062 159.441406 489.234375 162.4375 C 489.949219 165.429688 491.804688 168.140625 494.371094 169.707031 C 495.945312 170.992188 494.089844 173.128906 493.085938 174.125 C 490.375 177.40625 485.664062 177.976562 482.382812 175.410156 C 478.246094 173.554688 476.386719 168.992188 477.957031 164.859375 C 479.8125 157.300781 487.238281 150.746094 489.949219 150.746094 C 491.945312 150.746094 493.660156 149.03125 493.660156 147.035156 C 493.800781 145.039062 492.089844 143.328125 490.09375 143.183594 L 489.949219 143.183594 C 482.8125 143.183594 473.246094 152.882812 470.679688 163.007812 C 468.253906 170.421875 471.675781 178.546875 478.816406 181.96875 C 481.527344 183.535156 484.523438 184.25 487.664062 184.394531 C 493.800781 184.105469 499.226562 180.402344 501.796875 174.695312 C 502.082031 174.269531 502.792969 173.984375 503.367188 174.125 C 521.492188 179.542969 554.605469 176.125 578.730469 152.167969 C 579.445312 151.453125 579.871094 150.457031 579.871094 149.460938 C 579.871094 148.460938 579.445312 147.464844 578.730469 146.75 Z M 497.941406 163.007812 C 496.371094 161.578125 496.085938 159.296875 497.371094 157.589844 C 497.796875 156.875 498.085938 156.449219 498.367188 156.019531 C 498.511719 158.300781 498.367188 160.722656 497.941406 163.007812 Z M 497.941406 163.007812 " fill-opacity="1" fill-rule="nonzero"/><g clip-path="url(#2dc42ecf64)"><path fill="#c9974e" d="M 312.554688 184.113281 L 312.066406 184.113281 C 312.066406 155 307.34375 152.882812 280.800781 152.882812 L 280.800781 152.398438 C 307.34375 152.398438 312.066406 150.28125 312.066406 121.175781 L 312.554688 121.175781 C 312.554688 150.28125 317.277344 152.398438 343.8125 152.398438 L 343.8125 152.882812 C 317.277344 152.882812 312.554688 155 312.554688 184.113281 Z M 341.636719 144.484375 L 341.53125 144.484375 C 341.53125 137.972656 340.464844 137.496094 334.527344 137.496094 L 334.527344 137.386719 C 340.464844 137.386719 341.53125 136.910156 341.53125 130.394531 L 341.636719 130.394531 C 341.636719 136.910156 342.691406 137.386719 348.628906 137.386719 L 348.628906 137.496094 C 342.691406 137.496094 341.636719 137.972656 341.636719 144.484375 Z M 328.097656 128.292969 L 327.882812 128.292969 C 327.882812 115.355469 325.78125 114.417969 313.988281 114.417969 L 313.988281 114.199219 C 325.78125 114.199219 327.882812 113.261719 327.882812 100.328125 L 328.097656 100.328125 C 328.097656 113.261719 330.199219 114.199219 341.988281 114.199219 L 341.988281 114.417969 C 330.199219 114.417969 328.097656 115.355469 328.097656 128.292969 " fill-opacity="1" fill-rule="evenodd"/></g></svg>