<svg xmlns="http://www.w3.org/2000/svg" xmlns:xlink="http://www.w3.org/1999/xlink" width="400" zoomAndPan="magnify" viewBox="0 0 300 149.999998" height="200" preserveAspectRatio="xMidYMid meet" version="1.0"><defs><g/><clipPath id="ce3a583f35"><path d="M 34.34375 13.148438 L 36.59375 13.148438 L 36.59375 122.648438 L 34.34375 122.648438 Z M 34.34375 13.148438 " clip-rule="nonzero"/></clipPath><clipPath id="27e3787b7a"><path d="M 35.449219 122.648438 C 34.863281 122.648438 34.382812 122.101562 34.382812 121.425781 L 34.382812 14.375 C 34.382812 13.699219 34.863281 13.148438 35.449219 13.148438 C 36.039062 13.148438 36.515625 13.699219 36.515625 14.375 L 36.550781 121.425781 C 36.550781 122.101562 36.039062 122.648438 35.449219 122.648438 Z M 35.449219 122.648438 " clip-rule="nonzero"/></clipPath><linearGradient x1="832.414" gradientTransform="matrix(0.367379, -0.000000000000000003, -0.000000000000000003, 0.421965, -270.351313, -964.377954)" y1="2576.106964" x2="832.414" gradientUnits="userSpaceOnUse" y2="2316.606983" id="f3c43b4411"><stop stop-opacity="1" stop-color="rgb(97.299194%, 1.599121%, 61.199951%)" offset="0"/><stop stop-opacity="1" stop-color="rgb(97.238159%, 1.646423%, 61.216736%)" offset="0.03125"/><stop stop-opacity="1" stop-color="rgb(96.806335%, 1.991272%, 61.338806%)" offset="0.0351563"/><stop stop-opacity="1" stop-color="rgb(96.434021%, 2.288818%, 61.445618%)" offset="0.0390625"/><stop stop-opacity="1" stop-color="rgb(96.060181%, 2.584839%, 61.550903%)" offset="0.0429688"/><stop stop-opacity="1" stop-color="rgb(95.687866%, 2.882385%, 61.656189%)" offset="0.046875"/><stop stop-opacity="1" stop-color="rgb(95.314026%, 3.178406%, 61.761475%)" offset="0.0507813"/><stop stop-opacity="1" stop-color="rgb(94.941711%, 3.475952%, 61.868286%)" offset="0.0546875"/><stop stop-opacity="1" stop-color="rgb(94.567871%, 3.771973%, 61.973572%)" offset="0.0585938"/><stop stop-opacity="1" stop-color="rgb(94.195557%, 4.069519%, 62.080383%)" offset="0.0625"/><stop stop-opacity="1" stop-color="rgb(93.823242%, 4.36554%, 62.185669%)" offset="0.0664062"/><stop stop-opacity="1" stop-color="rgb(93.450928%, 4.663086%, 62.29248%)" offset="0.0703125"/><stop stop-opacity="1" stop-color="rgb(93.077087%, 4.959106%, 62.397766%)" offset="0.0742188"/><stop stop-opacity="1" stop-color="rgb(92.704773%, 5.255127%, 62.504578%)" offset="0.078125"/><stop stop-opacity="1" stop-color="rgb(92.330933%, 5.551147%, 62.609863%)" offset="0.0820313"/><stop stop-opacity="1" stop-color="rgb(91.958618%, 5.848694%, 62.716675%)" offset="0.0859375"/><stop stop-opacity="1" stop-color="rgb(91.586304%, 6.144714%, 62.82196%)" offset="0.0898438"/><stop stop-opacity="1" stop-color="rgb(91.213989%, 6.442261%, 62.927246%)" offset="0.09375"/><stop stop-opacity="1" stop-color="rgb(90.840149%, 6.738281%, 63.032532%)" offset="0.0976563"/><stop stop-opacity="1" stop-color="rgb(90.467834%, 7.035828%, 63.139343%)" offset="0.101563"/><stop stop-opacity="1" stop-color="rgb(90.093994%, 7.331848%, 63.244629%)" offset="0.105469"/><stop stop-opacity="1" stop-color="rgb(89.72168%, 7.629395%, 63.35144%)" offset="0.109375"/><stop stop-opacity="1" stop-color="rgb(89.349365%, 7.925415%, 63.456726%)" offset="0.113281"/><stop stop-opacity="1" stop-color="rgb(88.977051%, 8.222961%, 63.563538%)" offset="0.117188"/><stop stop-opacity="1" stop-color="rgb(88.60321%, 8.518982%, 63.668823%)" offset="0.121094"/><stop stop-opacity="1" stop-color="rgb(88.230896%, 8.816528%, 63.775635%)" offset="0.125"/><stop stop-opacity="1" stop-color="rgb(87.857056%, 9.112549%, 63.88092%)" offset="0.128906"/><stop stop-opacity="1" stop-color="rgb(87.484741%, 9.410095%, 63.986206%)" offset="0.132812"/><stop stop-opacity="1" stop-color="rgb(87.110901%, 9.706116%, 64.091492%)" offset="0.136719"/><stop stop-opacity="1" stop-color="rgb(86.738586%, 10.003662%, 64.198303%)" offset="0.140625"/><stop stop-opacity="1" stop-color="rgb(86.366272%, 10.299683%, 64.303589%)" offset="0.144531"/><stop stop-opacity="1" stop-color="rgb(85.993958%, 10.597229%, 64.4104%)" offset="0.148437"/><stop stop-opacity="1" stop-color="rgb(85.620117%, 10.89325%, 64.515686%)" offset="0.152344"/><stop stop-opacity="1" stop-color="rgb(85.247803%, 11.190796%, 64.622498%)" offset="0.15625"/><stop stop-opacity="1" stop-color="rgb(84.873962%, 11.486816%, 64.727783%)" offset="0.160156"/><stop stop-opacity="1" stop-color="rgb(84.501648%, 11.784363%, 64.834595%)" offset="0.164062"/><stop stop-opacity="1" stop-color="rgb(84.129333%, 12.080383%, 64.93988%)" offset="0.167969"/><stop stop-opacity="1" stop-color="rgb(83.757019%, 12.37793%, 65.045166%)" offset="0.171875"/><stop stop-opacity="1" stop-color="rgb(83.383179%, 12.67395%, 65.150452%)" offset="0.175781"/><stop stop-opacity="1" stop-color="rgb(83.010864%, 12.971497%, 65.257263%)" offset="0.179688"/><stop stop-opacity="1" stop-color="rgb(82.637024%, 13.267517%, 65.362549%)" offset="0.183594"/><stop stop-opacity="1" stop-color="rgb(82.264709%, 13.565063%, 65.46936%)" offset="0.1875"/><stop stop-opacity="1" stop-color="rgb(81.890869%, 13.861084%, 65.574646%)" offset="0.191406"/><stop stop-opacity="1" stop-color="rgb(81.518555%, 14.15863%, 65.681458%)" offset="0.195312"/><stop stop-opacity="1" stop-color="rgb(81.14624%, 14.454651%, 65.786743%)" offset="0.199219"/><stop stop-opacity="1" stop-color="rgb(80.773926%, 14.752197%, 65.893555%)" offset="0.203125"/><stop stop-opacity="1" stop-color="rgb(80.400085%, 15.048218%, 65.99884%)" offset="0.207031"/><stop stop-opacity="1" stop-color="rgb(80.027771%, 15.345764%, 66.104126%)" offset="0.210938"/><stop stop-opacity="1" stop-color="rgb(79.653931%, 15.641785%, 66.209412%)" offset="0.214844"/><stop stop-opacity="1" stop-color="rgb(79.281616%, 15.939331%, 66.316223%)" offset="0.21875"/><stop stop-opacity="1" stop-color="rgb(78.909302%, 16.235352%, 66.421509%)" offset="0.222656"/><stop stop-opacity="1" stop-color="rgb(78.536987%, 16.532898%, 66.52832%)" offset="0.226562"/><stop stop-opacity="1" stop-color="rgb(78.163147%, 16.828918%, 66.633606%)" offset="0.230469"/><stop stop-opacity="1" stop-color="rgb(77.790833%, 17.126465%, 66.740417%)" offset="0.234375"/><stop stop-opacity="1" stop-color="rgb(77.416992%, 17.422485%, 66.845703%)" offset="0.238281"/><stop stop-opacity="1" stop-color="rgb(77.044678%, 17.720032%, 66.952515%)" offset="0.242187"/><stop stop-opacity="1" stop-color="rgb(76.670837%, 18.016052%, 67.0578%)" offset="0.246094"/><stop stop-opacity="1" stop-color="rgb(76.298523%, 18.313599%, 67.163086%)" offset="0.25"/><stop stop-opacity="1" stop-color="rgb(75.926208%, 18.609619%, 67.268372%)" offset="0.253906"/><stop stop-opacity="1" stop-color="rgb(75.553894%, 18.907166%, 67.375183%)" offset="0.257812"/><stop stop-opacity="1" stop-color="rgb(75.180054%, 19.203186%, 67.480469%)" offset="0.261719"/><stop stop-opacity="1" stop-color="rgb(74.807739%, 19.500732%, 67.58728%)" offset="0.265625"/><stop stop-opacity="1" stop-color="rgb(74.433899%, 19.796753%, 67.692566%)" offset="0.269531"/><stop stop-opacity="1" stop-color="rgb(74.061584%, 20.094299%, 67.799377%)" offset="0.273438"/><stop stop-opacity="1" stop-color="rgb(73.68927%, 20.39032%, 67.904663%)" offset="0.277344"/><stop stop-opacity="1" stop-color="rgb(73.316956%, 20.687866%, 68.011475%)" offset="0.28125"/><stop stop-opacity="1" stop-color="rgb(72.943115%, 20.983887%, 68.11676%)" offset="0.285156"/><stop stop-opacity="1" stop-color="rgb(72.570801%, 21.279907%, 68.222046%)" offset="0.289063"/><stop stop-opacity="1" stop-color="rgb(72.19696%, 21.575928%, 68.327332%)" offset="0.292969"/><stop stop-opacity="1" stop-color="rgb(71.824646%, 21.873474%, 68.434143%)" offset="0.296875"/><stop stop-opacity="1" stop-color="rgb(71.450806%, 22.169495%, 68.539429%)" offset="0.300781"/><stop stop-opacity="1" stop-color="rgb(71.078491%, 22.467041%, 68.64624%)" offset="0.304688"/><stop stop-opacity="1" stop-color="rgb(70.706177%, 22.763062%, 68.751526%)" offset="0.308594"/><stop stop-opacity="1" stop-color="rgb(70.333862%, 23.060608%, 68.858337%)" offset="0.3125"/><stop stop-opacity="1" stop-color="rgb(69.960022%, 23.356628%, 68.963623%)" offset="0.316406"/><stop stop-opacity="1" stop-color="rgb(69.587708%, 23.654175%, 69.070435%)" offset="0.320312"/><stop stop-opacity="1" stop-color="rgb(69.213867%, 23.950195%, 69.17572%)" offset="0.324219"/><stop stop-opacity="1" stop-color="rgb(68.841553%, 24.247742%, 69.281006%)" offset="0.328125"/><stop stop-opacity="1" stop-color="rgb(68.469238%, 24.543762%, 69.386292%)" offset="0.332031"/><stop stop-opacity="1" stop-color="rgb(68.096924%, 24.841309%, 69.493103%)" offset="0.335938"/><stop stop-opacity="1" stop-color="rgb(67.723083%, 25.137329%, 69.598389%)" offset="0.339844"/><stop stop-opacity="1" stop-color="rgb(67.350769%, 25.434875%, 69.7052%)" offset="0.34375"/><stop stop-opacity="1" stop-color="rgb(66.976929%, 25.730896%, 69.810486%)" offset="0.347656"/><stop stop-opacity="1" stop-color="rgb(66.604614%, 26.028442%, 69.917297%)" offset="0.351562"/><stop stop-opacity="1" stop-color="rgb(66.230774%, 26.324463%, 70.022583%)" offset="0.355469"/><stop stop-opacity="1" stop-color="rgb(65.858459%, 26.622009%, 70.129395%)" offset="0.359375"/><stop stop-opacity="1" stop-color="rgb(65.486145%, 26.91803%, 70.23468%)" offset="0.363281"/><stop stop-opacity="1" stop-color="rgb(65.113831%, 27.215576%, 70.339966%)" offset="0.367188"/><stop stop-opacity="1" stop-color="rgb(64.73999%, 27.511597%, 70.445251%)" offset="0.371094"/><stop stop-opacity="1" stop-color="rgb(64.367676%, 27.809143%, 70.552063%)" offset="0.375"/><stop stop-opacity="1" stop-color="rgb(63.993835%, 28.105164%, 70.657349%)" offset="0.378906"/><stop stop-opacity="1" stop-color="rgb(63.621521%, 28.40271%, 70.76416%)" offset="0.382813"/><stop stop-opacity="1" stop-color="rgb(63.249207%, 28.69873%, 70.869446%)" offset="0.386719"/><stop stop-opacity="1" stop-color="rgb(62.876892%, 28.996277%, 70.976257%)" offset="0.390625"/><stop stop-opacity="1" stop-color="rgb(62.503052%, 29.292297%, 71.081543%)" offset="0.394531"/><stop stop-opacity="1" stop-color="rgb(62.130737%, 29.589844%, 71.188354%)" offset="0.398438"/><stop stop-opacity="1" stop-color="rgb(61.756897%, 29.885864%, 71.29364%)" offset="0.402344"/><stop stop-opacity="1" stop-color="rgb(61.384583%, 30.183411%, 71.398926%)" offset="0.40625"/><stop stop-opacity="1" stop-color="rgb(61.010742%, 30.479431%, 71.504211%)" offset="0.410156"/><stop stop-opacity="1" stop-color="rgb(60.638428%, 30.776978%, 71.611023%)" offset="0.414062"/><stop stop-opacity="1" stop-color="rgb(60.266113%, 31.072998%, 71.716309%)" offset="0.417969"/><stop stop-opacity="1" stop-color="rgb(59.893799%, 31.370544%, 71.82312%)" offset="0.421875"/><stop stop-opacity="1" stop-color="rgb(59.519958%, 31.666565%, 71.928406%)" offset="0.425781"/><stop stop-opacity="1" stop-color="rgb(59.147644%, 31.964111%, 72.035217%)" offset="0.429688"/><stop stop-opacity="1" stop-color="rgb(58.773804%, 32.260132%, 72.140503%)" offset="0.433594"/><stop stop-opacity="1" stop-color="rgb(58.401489%, 32.557678%, 72.247314%)" offset="0.4375"/><stop stop-opacity="1" stop-color="rgb(58.029175%, 32.853699%, 72.3526%)" offset="0.441406"/><stop stop-opacity="1" stop-color="rgb(57.65686%, 33.151245%, 72.457886%)" offset="0.445313"/><stop stop-opacity="1" stop-color="rgb(57.28302%, 33.447266%, 72.563171%)" offset="0.449219"/><stop stop-opacity="1" stop-color="rgb(56.910706%, 33.744812%, 72.669983%)" offset="0.453125"/><stop stop-opacity="1" stop-color="rgb(56.536865%, 34.040833%, 72.775269%)" offset="0.457031"/><stop stop-opacity="1" stop-color="rgb(56.164551%, 34.338379%, 72.88208%)" offset="0.460938"/><stop stop-opacity="1" stop-color="rgb(55.792236%, 34.634399%, 72.987366%)" offset="0.464844"/><stop stop-opacity="1" stop-color="rgb(55.419922%, 34.931946%, 73.094177%)" offset="0.46875"/><stop stop-opacity="1" stop-color="rgb(55.046082%, 35.227966%, 73.199463%)" offset="0.472656"/><stop stop-opacity="1" stop-color="rgb(54.673767%, 35.525513%, 73.306274%)" offset="0.476563"/><stop stop-opacity="1" stop-color="rgb(54.299927%, 35.821533%, 73.41156%)" offset="0.480469"/><stop stop-opacity="1" stop-color="rgb(53.927612%, 36.11908%, 73.516846%)" offset="0.484375"/><stop stop-opacity="1" stop-color="rgb(53.553772%, 36.4151%, 73.622131%)" offset="0.488281"/><stop stop-opacity="1" stop-color="rgb(53.181458%, 36.712646%, 73.728943%)" offset="0.492188"/><stop stop-opacity="1" stop-color="rgb(52.809143%, 37.008667%, 73.834229%)" offset="0.496094"/><stop stop-opacity="1" stop-color="rgb(52.436829%, 37.306213%, 73.94104%)" offset="0.5"/><stop stop-opacity="1" stop-color="rgb(52.062988%, 37.602234%, 74.046326%)" offset="0.503906"/><stop stop-opacity="1" stop-color="rgb(51.690674%, 37.898254%, 74.153137%)" offset="0.507812"/><stop stop-opacity="1" stop-color="rgb(51.316833%, 38.194275%, 74.258423%)" offset="0.511719"/><stop stop-opacity="1" stop-color="rgb(50.944519%, 38.491821%, 74.365234%)" offset="0.515625"/><stop stop-opacity="1" stop-color="rgb(50.572205%, 38.787842%, 74.47052%)" offset="0.519531"/><stop stop-opacity="1" stop-color="rgb(50.19989%, 39.085388%, 74.575806%)" offset="0.523438"/><stop stop-opacity="1" stop-color="rgb(49.82605%, 39.381409%, 74.681091%)" offset="0.527344"/><stop stop-opacity="1" stop-color="rgb(49.453735%, 39.678955%, 74.787903%)" offset="0.53125"/><stop stop-opacity="1" stop-color="rgb(49.079895%, 39.974976%, 74.893188%)" offset="0.535156"/><stop stop-opacity="1" stop-color="rgb(48.707581%, 40.272522%, 75%)" offset="0.539062"/><stop stop-opacity="1" stop-color="rgb(48.33374%, 40.568542%, 75.105286%)" offset="0.542969"/><stop stop-opacity="1" stop-color="rgb(47.961426%, 40.866089%, 75.212097%)" offset="0.546875"/><stop stop-opacity="1" stop-color="rgb(47.589111%, 41.162109%, 75.317383%)" offset="0.550781"/><stop stop-opacity="1" stop-color="rgb(47.216797%, 41.459656%, 75.424194%)" offset="0.554688"/><stop stop-opacity="1" stop-color="rgb(46.842957%, 41.755676%, 75.52948%)" offset="0.558594"/><stop stop-opacity="1" stop-color="rgb(46.470642%, 42.053223%, 75.634766%)" offset="0.5625"/><stop stop-opacity="1" stop-color="rgb(46.096802%, 42.349243%, 75.740051%)" offset="0.566406"/><stop stop-opacity="1" stop-color="rgb(45.724487%, 42.64679%, 75.846863%)" offset="0.570312"/><stop stop-opacity="1" stop-color="rgb(45.352173%, 42.94281%, 75.952148%)" offset="0.574219"/><stop stop-opacity="1" stop-color="rgb(44.979858%, 43.240356%, 76.05896%)" offset="0.578125"/><stop stop-opacity="1" stop-color="rgb(44.606018%, 43.536377%, 76.164246%)" offset="0.582031"/><stop stop-opacity="1" stop-color="rgb(44.233704%, 43.833923%, 76.271057%)" offset="0.585938"/><stop stop-opacity="1" stop-color="rgb(43.859863%, 44.129944%, 76.376343%)" offset="0.589844"/><stop stop-opacity="1" stop-color="rgb(43.487549%, 44.42749%, 76.483154%)" offset="0.59375"/><stop stop-opacity="1" stop-color="rgb(43.113708%, 44.723511%, 76.58844%)" offset="0.597656"/><stop stop-opacity="1" stop-color="rgb(42.741394%, 45.021057%, 76.693726%)" offset="0.601563"/><stop stop-opacity="1" stop-color="rgb(42.36908%, 45.317078%, 76.799011%)" offset="0.605469"/><stop stop-opacity="1" stop-color="rgb(41.996765%, 45.614624%, 76.905823%)" offset="0.609375"/><stop stop-opacity="1" stop-color="rgb(41.622925%, 45.910645%, 77.011108%)" offset="0.613281"/><stop stop-opacity="1" stop-color="rgb(41.25061%, 46.208191%, 77.11792%)" offset="0.617188"/><stop stop-opacity="1" stop-color="rgb(40.87677%, 46.504211%, 77.223206%)" offset="0.621094"/><stop stop-opacity="1" stop-color="rgb(40.504456%, 46.801758%, 77.330017%)" offset="0.625"/><stop stop-opacity="1" stop-color="rgb(40.132141%, 47.097778%, 77.435303%)" offset="0.628906"/><stop stop-opacity="1" stop-color="rgb(39.759827%, 47.395325%, 77.542114%)" offset="0.632812"/><stop stop-opacity="1" stop-color="rgb(39.385986%, 47.691345%, 77.6474%)" offset="0.636719"/><stop stop-opacity="1" stop-color="rgb(39.013672%, 47.988892%, 77.752686%)" offset="0.640625"/><stop stop-opacity="1" stop-color="rgb(38.639832%, 48.284912%, 77.857971%)" offset="0.644531"/><stop stop-opacity="1" stop-color="rgb(38.267517%, 48.582458%, 77.964783%)" offset="0.648438"/><stop stop-opacity="1" stop-color="rgb(37.893677%, 48.878479%, 78.070068%)" offset="0.652344"/><stop stop-opacity="1" stop-color="rgb(37.521362%, 49.176025%, 78.17688%)" offset="0.65625"/><stop stop-opacity="1" stop-color="rgb(37.149048%, 49.472046%, 78.282166%)" offset="0.660156"/><stop stop-opacity="1" stop-color="rgb(36.776733%, 49.769592%, 78.388977%)" offset="0.664062"/><stop stop-opacity="1" stop-color="rgb(36.402893%, 50.065613%, 78.494263%)" offset="0.667969"/><stop stop-opacity="1" stop-color="rgb(36.030579%, 50.363159%, 78.601074%)" offset="0.671875"/><stop stop-opacity="1" stop-color="rgb(35.656738%, 50.65918%, 78.70636%)" offset="0.675781"/><stop stop-opacity="1" stop-color="rgb(35.284424%, 50.956726%, 78.811646%)" offset="0.679688"/><stop stop-opacity="1" stop-color="rgb(34.912109%, 51.252747%, 78.916931%)" offset="0.683594"/><stop stop-opacity="1" stop-color="rgb(34.539795%, 51.550293%, 79.023743%)" offset="0.6875"/><stop stop-opacity="1" stop-color="rgb(34.165955%, 51.846313%, 79.129028%)" offset="0.691406"/><stop stop-opacity="1" stop-color="rgb(33.79364%, 52.14386%, 79.23584%)" offset="0.695313"/><stop stop-opacity="1" stop-color="rgb(33.4198%, 52.43988%, 79.341125%)" offset="0.699219"/><stop stop-opacity="1" stop-color="rgb(33.047485%, 52.737427%, 79.447937%)" offset="0.703125"/><stop stop-opacity="1" stop-color="rgb(32.673645%, 53.033447%, 79.553223%)" offset="0.707031"/><stop stop-opacity="1" stop-color="rgb(32.301331%, 53.330994%, 79.660034%)" offset="0.710938"/><stop stop-opacity="1" stop-color="rgb(31.929016%, 53.627014%, 79.76532%)" offset="0.714844"/><stop stop-opacity="1" stop-color="rgb(31.556702%, 53.923035%, 79.870605%)" offset="0.71875"/><stop stop-opacity="1" stop-color="rgb(31.182861%, 54.219055%, 79.975891%)" offset="0.722656"/><stop stop-opacity="1" stop-color="rgb(30.810547%, 54.516602%, 80.082703%)" offset="0.726562"/><stop stop-opacity="1" stop-color="rgb(30.436707%, 54.812622%, 80.187988%)" offset="0.730469"/><stop stop-opacity="1" stop-color="rgb(30.064392%, 55.110168%, 80.2948%)" offset="0.734375"/><stop stop-opacity="1" stop-color="rgb(29.692078%, 55.406189%, 80.400085%)" offset="0.738281"/><stop stop-opacity="1" stop-color="rgb(29.319763%, 55.703735%, 80.506897%)" offset="0.742188"/><stop stop-opacity="1" stop-color="rgb(28.945923%, 55.999756%, 80.612183%)" offset="0.746094"/><stop stop-opacity="1" stop-color="rgb(28.573608%, 56.297302%, 80.718994%)" offset="0.75"/><stop stop-opacity="1" stop-color="rgb(28.199768%, 56.593323%, 80.82428%)" offset="0.753906"/><stop stop-opacity="1" stop-color="rgb(27.827454%, 56.890869%, 80.931091%)" offset="0.757812"/><stop stop-opacity="1" stop-color="rgb(27.455139%, 57.18689%, 81.036377%)" offset="0.761719"/><stop stop-opacity="1" stop-color="rgb(27.082825%, 57.484436%, 81.141663%)" offset="0.765625"/><stop stop-opacity="1" stop-color="rgb(26.708984%, 57.780457%, 81.246948%)" offset="0.769531"/><stop stop-opacity="1" stop-color="rgb(26.33667%, 58.078003%, 81.35376%)" offset="0.773438"/><stop stop-opacity="1" stop-color="rgb(25.96283%, 58.374023%, 81.459045%)" offset="0.777344"/><stop stop-opacity="1" stop-color="rgb(25.590515%, 58.67157%, 81.565857%)" offset="0.78125"/><stop stop-opacity="1" stop-color="rgb(25.216675%, 58.96759%, 81.671143%)" offset="0.785156"/><stop stop-opacity="1" stop-color="rgb(24.84436%, 59.265137%, 81.777954%)" offset="0.789063"/><stop stop-opacity="1" stop-color="rgb(24.472046%, 59.561157%, 81.88324%)" offset="0.792969"/><stop stop-opacity="1" stop-color="rgb(24.099731%, 59.858704%, 81.990051%)" offset="0.796875"/><stop stop-opacity="1" stop-color="rgb(23.725891%, 60.154724%, 82.095337%)" offset="0.800781"/><stop stop-opacity="1" stop-color="rgb(23.353577%, 60.452271%, 82.200623%)" offset="0.804688"/><stop stop-opacity="1" stop-color="rgb(22.979736%, 60.748291%, 82.305908%)" offset="0.808594"/><stop stop-opacity="1" stop-color="rgb(22.607422%, 61.045837%, 82.41272%)" offset="0.8125"/><stop stop-opacity="1" stop-color="rgb(22.235107%, 61.341858%, 82.518005%)" offset="0.816406"/><stop stop-opacity="1" stop-color="rgb(21.862793%, 61.639404%, 82.624817%)" offset="0.820312"/><stop stop-opacity="1" stop-color="rgb(21.488953%, 61.935425%, 82.730103%)" offset="0.824219"/><stop stop-opacity="1" stop-color="rgb(21.116638%, 62.232971%, 82.836914%)" offset="0.828125"/><stop stop-opacity="1" stop-color="rgb(20.742798%, 62.528992%, 82.9422%)" offset="0.832031"/><stop stop-opacity="1" stop-color="rgb(20.370483%, 62.826538%, 83.049011%)" offset="0.835938"/><stop stop-opacity="1" stop-color="rgb(19.996643%, 63.122559%, 83.154297%)" offset="0.839844"/><stop stop-opacity="1" stop-color="rgb(19.624329%, 63.420105%, 83.259583%)" offset="0.84375"/><stop stop-opacity="1" stop-color="rgb(19.252014%, 63.716125%, 83.364868%)" offset="0.847656"/><stop stop-opacity="1" stop-color="rgb(18.8797%, 64.013672%, 83.47168%)" offset="0.851562"/><stop stop-opacity="1" stop-color="rgb(18.505859%, 64.309692%, 83.576965%)" offset="0.855469"/><stop stop-opacity="1" stop-color="rgb(18.133545%, 64.607239%, 83.683777%)" offset="0.859375"/><stop stop-opacity="1" stop-color="rgb(17.759705%, 64.903259%, 83.789062%)" offset="0.863281"/><stop stop-opacity="1" stop-color="rgb(17.38739%, 65.200806%, 83.895874%)" offset="0.867188"/><stop stop-opacity="1" stop-color="rgb(17.015076%, 65.496826%, 84.00116%)" offset="0.871094"/><stop stop-opacity="1" stop-color="rgb(16.642761%, 65.794373%, 84.107971%)" offset="0.875"/><stop stop-opacity="1" stop-color="rgb(16.268921%, 66.090393%, 84.213257%)" offset="0.878906"/><stop stop-opacity="1" stop-color="rgb(15.896606%, 66.387939%, 84.318542%)" offset="0.882813"/><stop stop-opacity="1" stop-color="rgb(15.522766%, 66.68396%, 84.423828%)" offset="0.886719"/><stop stop-opacity="1" stop-color="rgb(15.150452%, 66.981506%, 84.53064%)" offset="0.890625"/><stop stop-opacity="1" stop-color="rgb(14.776611%, 67.277527%, 84.635925%)" offset="0.894531"/><stop stop-opacity="1" stop-color="rgb(14.404297%, 67.575073%, 84.742737%)" offset="0.898438"/><stop stop-opacity="1" stop-color="rgb(14.031982%, 67.871094%, 84.848022%)" offset="0.902344"/><stop stop-opacity="1" stop-color="rgb(13.659668%, 68.16864%, 84.954834%)" offset="0.90625"/><stop stop-opacity="1" stop-color="rgb(13.285828%, 68.464661%, 85.06012%)" offset="0.910156"/><stop stop-opacity="1" stop-color="rgb(12.913513%, 68.762207%, 85.166931%)" offset="0.914062"/><stop stop-opacity="1" stop-color="rgb(12.539673%, 69.058228%, 85.272217%)" offset="0.917969"/><stop stop-opacity="1" stop-color="rgb(12.167358%, 69.355774%, 85.377502%)" offset="0.921875"/><stop stop-opacity="1" stop-color="rgb(11.795044%, 69.651794%, 85.482788%)" offset="0.925781"/><stop stop-opacity="1" stop-color="rgb(11.422729%, 69.947815%, 85.5896%)" offset="0.929688"/><stop stop-opacity="1" stop-color="rgb(11.048889%, 70.243835%, 85.694885%)" offset="0.933594"/><stop stop-opacity="1" stop-color="rgb(10.676575%, 70.541382%, 85.801697%)" offset="0.9375"/><stop stop-opacity="1" stop-color="rgb(10.302734%, 70.837402%, 85.906982%)" offset="0.941406"/><stop stop-opacity="1" stop-color="rgb(9.93042%, 71.134949%, 86.013794%)" offset="0.945312"/><stop stop-opacity="1" stop-color="rgb(9.55658%, 71.430969%, 86.11908%)" offset="0.949219"/><stop stop-opacity="1" stop-color="rgb(9.184265%, 71.728516%, 86.225891%)" offset="0.953125"/><stop stop-opacity="1" stop-color="rgb(8.811951%, 72.024536%, 86.331177%)" offset="0.957031"/><stop stop-opacity="1" stop-color="rgb(8.439636%, 72.322083%, 86.436462%)" offset="0.960938"/><stop stop-opacity="1" stop-color="rgb(8.065796%, 72.618103%, 86.541748%)" offset="0.964844"/><stop stop-opacity="1" stop-color="rgb(7.693481%, 72.915649%, 86.64856%)" offset="0.96875"/><stop stop-opacity="1" stop-color="rgb(7.319641%, 73.21167%, 86.753845%)" offset="0.972656"/><stop stop-opacity="1" stop-color="rgb(6.947327%, 73.509216%, 86.860657%)" offset="0.976563"/><stop stop-opacity="1" stop-color="rgb(6.575012%, 73.805237%, 86.965942%)" offset="0.980469"/><stop stop-opacity="1" stop-color="rgb(6.202698%, 74.102783%, 87.072754%)" offset="0.984375"/><stop stop-opacity="1" stop-color="rgb(5.828857%, 74.398804%, 87.17804%)" offset="0.988281"/><stop stop-opacity="1" stop-color="rgb(5.456543%, 74.69635%, 87.284851%)" offset="0.992188"/><stop stop-opacity="1" stop-color="rgb(5.082703%, 74.992371%, 87.390137%)" offset="0.996094"/><stop stop-opacity="1" stop-color="rgb(4.710388%, 75.289917%, 87.495422%)" offset="1"/></linearGradient></defs><g fill="#f8049c" fill-opacity="1"><g transform="translate(49.42392, 74.570397)"><g><path d="M 35.683594 -52.394531 L 18.550781 -52.394531 C 16.796875 -52.394531 16.878906 -51.140625 17.714844 -50.390625 C 20.140625 -48.21875 21.644531 -36.183594 21.726562 -26.324219 C 21.726562 -19.972656 21.058594 -14.957031 18.21875 -13.121094 C 15.125 -11.199219 10.445312 -16.128906 12.953125 -21.476562 C 16.042969 -27.828125 0 -31.671875 0 -21.476562 C 0 -14.789062 6.601562 -9.859375 15.960938 -9.859375 C 27.410156 -9.859375 33.675781 -17.046875 33.675781 -28.578125 C 33.675781 -34.429688 33.425781 -47.964844 36.601562 -50.390625 C 37.4375 -51.058594 37.4375 -52.394531 35.683594 -52.394531 Z M 35.683594 -52.394531 "/></g></g></g><g fill="#f8049c" fill-opacity="1"><g transform="translate(82.677922, 74.570397)"><g><path d="M 29.75 -19.46875 C 27.410156 -16.378906 22.3125 -15.292969 19.21875 -16.128906 C 15.878906 -17.128906 14.039062 -19.46875 13.203125 -22.226562 C 14.957031 -21.476562 16.878906 -20.976562 19.054688 -20.976562 C 25.570312 -20.976562 30.917969 -25.402344 30.917969 -30.835938 C 30.917969 -36.351562 23.898438 -40.78125 17.382812 -40.78125 C 7.355469 -40.78125 0 -33.84375 0 -25.320312 C 0 -16.796875 7.4375 -9.859375 16.714844 -9.859375 C 23.148438 -9.859375 28.746094 -13.285156 31.503906 -18.21875 C 32.003906 -19.136719 30.585938 -20.558594 29.75 -19.46875 Z M 16.964844 -38.441406 C 19.21875 -38.441406 20.808594 -35.015625 20.808594 -30.835938 C 20.808594 -26.742188 19.21875 -23.316406 16.964844 -23.316406 C 14.957031 -23.316406 12.867188 -26.074219 12.867188 -30.5 C 12.867188 -35.847656 15.625 -38.441406 16.964844 -38.441406 Z M 16.964844 -38.441406 "/></g></g></g><g fill="#f8049c" fill-opacity="1"><g transform="translate(111.085753, 74.570397)"><g><path d="M 40.613281 -11.617188 C 37.6875 -13.789062 37.1875 -15.625 37.1875 -18.71875 L 37.1875 -24.234375 C 37.1875 -33.425781 31.421875 -40.78125 22.394531 -40.78125 C 19.722656 -40.78125 17.546875 -39.023438 15.878906 -36.851562 L 16.128906 -38.605469 C 16.296875 -39.695312 17.128906 -41.03125 15.375 -40.695312 C 12.199219 -40.027344 8.859375 -34.597656 0.835938 -34.597656 C 0 -34.597656 -0.335938 -33.59375 0.5 -32.925781 C 3.425781 -30.667969 3.925781 -28.828125 3.925781 -25.738281 L 3.925781 -18.71875 C 3.925781 -15.625 3.425781 -13.789062 0.5 -11.617188 C -0.335938 -10.945312 0 -9.859375 0.835938 -9.859375 L 17.128906 -9.859375 C 18.886719 -9.859375 18.886719 -11.28125 17.964844 -11.949219 C 15.460938 -13.871094 14.289062 -20.640625 15.207031 -31.253906 C 16.628906 -34.429688 18.300781 -36.9375 19.972656 -36.9375 C 25.738281 -36.9375 28.160156 -16.796875 22.8125 -11.949219 C 21.976562 -11.199219 21.894531 -9.859375 23.648438 -9.859375 L 40.277344 -9.859375 C 41.113281 -9.859375 41.449219 -10.945312 40.613281 -11.617188 Z M 40.613281 -11.617188 "/></g></g></g><g fill="#f8049c" fill-opacity="1"><g transform="translate(49.42392, 124.070395)"><g><path d="M 33.925781 -21.558594 C 31.753906 -18.636719 26.65625 -12.199219 21.476562 -12.199219 L 18.71875 -12.199219 C 15.960938 -15.125 15.625 -25.570312 15.625 -31.167969 C 15.625 -37.019531 15.960938 -47.964844 19.054688 -50.390625 C 19.972656 -51.058594 19.972656 -52.394531 18.21875 -52.394531 L 0.835938 -52.394531 C 0 -52.394531 -0.335938 -51.390625 0.5 -50.722656 C 3.425781 -48.550781 3.925781 -46.628906 3.925781 -43.621094 L 3.925781 -18.71875 C 3.925781 -15.625 3.425781 -13.789062 0.5 -11.617188 C -0.335938 -10.945312 0 -9.859375 0.835938 -9.859375 L 31.921875 -9.859375 C 33.507812 -9.859375 34.011719 -10.527344 34.179688 -12.199219 C 34.429688 -14.457031 35.683594 -20.640625 35.683594 -21.226562 C 35.683594 -22.144531 34.597656 -22.394531 33.925781 -21.558594 Z M 33.925781 -21.558594 "/></g></g></g><g fill="#f8049c" fill-opacity="1"><g transform="translate(81.758824, 124.070395)"><g><path d="M 37.355469 -38.605469 C 37.519531 -39.695312 38.273438 -41.03125 36.519531 -40.695312 C 33.425781 -40.027344 30 -34.597656 21.976562 -34.597656 C 21.140625 -34.597656 20.808594 -33.59375 21.644531 -32.925781 C 24.566406 -30.667969 25.070312 -28.828125 25.070312 -25.738281 L 25.070312 -18.71875 C 23.984375 -16.210938 22.394531 -13.703125 20.640625 -13.703125 C 14.375 -13.703125 14.039062 -28.664062 16.128906 -38.605469 C 16.378906 -39.695312 17.128906 -41.03125 15.375 -40.695312 C 12.199219 -40.027344 8.859375 -34.597656 0.835938 -34.597656 C 0 -34.597656 -0.335938 -33.59375 0.5 -32.925781 C 3.425781 -30.667969 3.925781 -28.828125 3.925781 -25.738281 C 3.925781 -13.371094 9.695312 -9.859375 17.214844 -9.859375 C 20.976562 -9.859375 23.566406 -12.035156 25.402344 -14.707031 C 26.238281 -12.285156 28.578125 -9.859375 32.257812 -9.859375 L 39.945312 -9.859375 C 40.78125 -9.859375 40.945312 -10.78125 40.195312 -11.617188 C 35.015625 -17.800781 36.265625 -31.921875 37.355469 -38.605469 Z M 37.355469 -38.605469 "/></g></g></g><g fill="#f8049c" fill-opacity="1"><g transform="translate(118.689242, 124.070395)"><g><path d="M 18.382812 -38.441406 C 21.226562 -38.441406 20.890625 -33.761719 21.394531 -27.660156 C 21.976562 -21.558594 34.597656 -26.90625 31.335938 -32.675781 C 28.160156 -38.355469 23.0625 -40.78125 16.714844 -40.78125 C 7.4375 -40.78125 0 -33.84375 0 -25.320312 C 0 -16.796875 7.4375 -9.859375 16.714844 -9.859375 C 23.148438 -9.859375 28.746094 -13.285156 31.503906 -18.21875 C 32.003906 -19.136719 30.585938 -20.558594 29.75 -19.46875 C 27.410156 -16.378906 22.3125 -15.292969 19.21875 -16.128906 C 7.855469 -19.386719 13.789062 -38.441406 18.382812 -38.441406 Z M 18.382812 -38.441406 "/></g></g></g><g fill="#f8049c" fill-opacity="1"><g transform="translate(147.180628, 124.070395)"><g><path d="M 40.863281 -11.617188 C 38.023438 -13.789062 37.4375 -15.625 37.4375 -18.71875 L 37.4375 -24.234375 C 37.4375 -33.425781 31.753906 -40.78125 22.644531 -40.78125 C 19.386719 -40.78125 16.878906 -38.941406 15.042969 -36.601562 C 15.207031 -41.199219 15.625 -45.878906 16.460938 -50.304688 C 16.628906 -51.390625 17.382812 -52.8125 15.625 -52.394531 C 12.535156 -51.808594 8.859375 -46.296875 0.835938 -46.296875 C 0 -46.296875 -0.335938 -45.292969 0.5 -44.625 C 3.425781 -42.449219 3.925781 -40.613281 3.925781 -37.519531 L 3.925781 -18.71875 C 3.925781 -15.625 3.425781 -13.789062 0.5 -11.617188 C -0.335938 -10.945312 0 -9.859375 0.835938 -9.859375 L 17.382812 -9.859375 C 19.21875 -9.859375 19.136719 -11.28125 18.300781 -11.949219 C 16.296875 -13.453125 14.957031 -22.0625 14.957031 -32.171875 C 16.546875 -35.429688 18.71875 -37.269531 20.222656 -37.269531 C 25.988281 -37.269531 28.496094 -16.796875 23.0625 -11.949219 C 22.3125 -11.199219 22.226562 -9.859375 23.984375 -9.859375 L 40.613281 -9.859375 C 41.449219 -9.859375 41.78125 -10.945312 40.863281 -11.617188 Z M 40.863281 -11.617188 "/></g></g></g><g fill="#f8049c" fill-opacity="1"><g transform="translate(185.615025, 124.070395)"><g><path d="M 39.695312 -11.949219 C 30.835938 -17.546875 29.164062 -31.167969 21.644531 -33.175781 C 23.316406 -34.09375 24.984375 -34.597656 26.90625 -33.34375 C 33.007812 -29.5 38.941406 -36.183594 33.257812 -39.695312 C 26.324219 -44.039062 19.21875 -33.507812 14.957031 -32.339844 C 14.957031 -38.1875 15.375 -44.539062 16.460938 -50.304688 C 16.628906 -51.390625 17.382812 -52.8125 15.625 -52.394531 C 12.535156 -51.808594 8.859375 -46.296875 0.835938 -46.296875 C 0 -46.296875 -0.335938 -45.292969 0.5 -44.625 C 3.425781 -42.449219 3.925781 -40.613281 3.925781 -37.519531 L 3.925781 -18.71875 C 3.925781 -15.625 3.425781 -13.789062 0.5 -11.617188 C -0.335938 -10.945312 0 -9.859375 0.835938 -9.859375 L 17.382812 -9.859375 C 19.21875 -9.859375 19.136719 -11.28125 18.300781 -11.949219 C 16.460938 -13.285156 15.125 -20.808594 14.957031 -29.917969 C 19.304688 -31.003906 20.976562 -23.230469 22.144531 -18.71875 C 22.898438 -15.625 23.148438 -13.789062 20.976562 -11.617188 C 20.304688 -10.945312 20.976562 -9.859375 21.894531 -9.859375 L 39.441406 -9.859375 C 41.199219 -9.859375 40.78125 -11.28125 39.695312 -11.949219 Z M 39.695312 -11.949219 "/></g></g></g><g fill="#f8049c" fill-opacity="1"><g transform="translate(222.963205, 124.070395)"><g><path d="M 33.507812 -11.617188 C 30.585938 -13.789062 30.082031 -15.625 30.082031 -18.71875 L 30.082031 -25.570312 C 30.082031 -34.597656 23.316406 -40.78125 14.375 -40.78125 C 6.683594 -40.78125 2.507812 -36.9375 2.507812 -33.34375 C 2.507812 -28.496094 15.042969 -30.167969 13.285156 -34.261719 C 12.285156 -36.433594 12.285156 -38.441406 13.539062 -38.441406 C 16.546875 -38.441406 18.382812 -32.925781 18.382812 -28.078125 L 18.382812 -25.570312 C 16.546875 -27.996094 13.539062 -29.582031 10.195312 -29.582031 C 4.597656 -29.582031 0 -25.152344 0 -19.722656 C 0 -14.289062 4.597656 -9.859375 10.195312 -9.859375 C 13.539062 -9.859375 16.546875 -11.449219 18.382812 -13.871094 C 18.382812 -13.871094 20.140625 -9.859375 24.652344 -9.859375 L 33.175781 -9.859375 C 34.09375 -9.859375 34.34375 -10.945312 33.507812 -11.617188 Z M 13.871094 -14.375 C 11.617188 -14.375 9.777344 -16.796875 9.777344 -19.722656 C 9.777344 -22.644531 11.617188 -25.070312 13.871094 -25.070312 C 16.210938 -25.070312 18.050781 -22.644531 18.050781 -19.722656 C 18.050781 -16.796875 16.210938 -14.375 13.871094 -14.375 Z M 13.871094 -14.375 "/></g></g></g><g clip-path="url(#ce3a583f35)"><g clip-path="url(#27e3787b7a)"><path fill="url(#f3c43b4411)" d="M 34.382812 13.148438 L 34.382812 122.648438 L 36.550781 122.648438 L 36.550781 13.148438 Z M 34.382812 13.148438 " fill-rule="nonzero"/></g></g></svg>