<svg xmlns="http://www.w3.org/2000/svg" xmlns:xlink="http://www.w3.org/1999/xlink" width="100" zoomAndPan="magnify" viewBox="0 0 75 74.999997" height="100" preserveAspectRatio="xMidYMid meet" version="1.0"><defs><clipPath id="b0a98f74b5"><path d="M 49 6 L 68.855469 6 L 68.855469 68.363281 L 49 68.363281 Z M 49 6 " clip-rule="nonzero"/></clipPath></defs><path fill="#dfdfdf" d="M 6.628906 27.886719 C 6.628906 27.886719 5.105469 26.792969 6.933594 25.332031 L 11.195312 21.535156 C 11.195312 21.535156 12.414062 20.257812 13.703125 21.371094 L 53.023438 51.023438 L 53.023438 65.246094 C 53.023438 65.246094 53.003906 67.476562 50.125 67.230469 Z M 6.628906 27.886719 " fill-opacity="1" fill-rule="nonzero"/><path fill="#d1d1d1" d="M 16.761719 37.050781 L 6.628906 46.230469 C 6.628906 46.230469 5.585938 47 6.628906 48.378906 L 11.332031 52.644531 C 11.332031 52.644531 12.449219 53.839844 14.101562 52.480469 L 24.847656 44.363281 Z M 16.761719 37.050781 " fill-opacity="1" fill-rule="nonzero"/><path fill="#e8e8e8" d="M 34.554688 37.128906 L 53.144531 22.988281 L 53.023438 8.84375 C 53.023438 8.84375 52.230469 5.757812 49.582031 7.367188 L 24.847656 29.789062 Z M 34.554688 37.128906 " fill-opacity="1" fill-rule="nonzero"/><g clip-path="url(#b0a98f74b5)"><path fill="#f4f4f4" d="M 50.125 67.25 C 51.207031 68.351562 52.515625 67.992188 52.515625 67.992188 L 67 60.878906 C 68.855469 59.621094 68.59375 58.058594 68.59375 58.058594 L 68.59375 15.601562 C 68.59375 13.734375 66.675781 13.089844 66.675781 13.089844 L 54.121094 7.0625 C 51.378906 5.371094 49.582031 7.367188 49.582031 7.367188 C 49.582031 7.367188 51.890625 5.707031 53.023438 8.84375 L 53.023438 64.984375 C 53.023438 65.371094 52.941406 65.75 52.773438 66.09375 C 52.445312 66.757812 51.726562 67.375 50.007812 67.117188 Z M 50.125 67.25 " fill-opacity="1" fill-rule="nonzero"/></g></svg>